<svg xmlns="http://www.w3.org/2000/svg" style="display:none">
  <symbol id="s-telegram" viewBox="0 0 24 24">
    <path fill="currentColor" d="M9.7 15.7 9.4 20c.5 0 .7-.2 1-.4l2.3-2.2 4.7 3.5c.9.5 1.5.2 1.8-.8l3.3-15.4c.3-1.3-.5-1.9-1.6-1.5L1.4 9.9c-1.2.5-1.2 1.2-.2 1.5l4.7 1.5L18.6 6c.6-.4 1.2-.2.7.2Z"/>
  </symbol>
  <symbol id="s-instagram" viewBox="0 0 24 24">
    <path fill="currentColor" d="M7 2h10a5 5 0 0 1 5 5v10a5 5 0 0 1-5 5H7a5 5 0 0 1-5-5V7a5 5 0 0 1 5-5Zm5 6a4 4 0 1 0 0 8a4 4 0 0 0 0-8Zm6-1a1 1 0 1 0 0 2a1 1 0 0 0 0-2Z"/>
  </symbol>
  <symbol id="s-facebook" viewBox="0 0 24 24">
    <path fill="currentColor" d="M13 22v-8h3l.5-3H13V9.2c0-.8.3-1.2 1.2-1.2H16V5.1c-.6-.1-1.6-.1-2.8-.1c-2.7 0-4.2 1.6-4.2 4.4V11H6v3h3v8h4Z"/>
  </symbol>
  <symbol id="s-youtube" viewBox="0 0 24 24">
    <path fill="currentColor" d="M21.6 7.2a2.7 2.7 0 0 0-1.9-2C18 5 12 5 12 5s-6 0-7.7.2a2.7 2.7 0 0 0-1.9 2A28 28 0 0 0 2 12a28 28 0 0 0 .4 4.8a2.7 2.7 0 0 0 1.9 2C6 19 12 19 12 19s6 0 7.7-.2a2.7 2.7 0 0 0 1.9-2A28 28 0 0 0 22 12a28 28 0 0 0-.4-4.8ZM10 15.5v-7l6 3.5l-6 3.5Z"/>
  </symbol>
</svg>
