<svg xmlns="http://www.w3.org/2000/svg" style="display:none">
  <symbol id="i-search" viewBox="0 0 24 24">
    <path fill="currentColor" d="M10 4a6 6 0 1 1 0 12a6 6 0 0 1 0-12m0-2a8 8 0 1 0 4.9 14.3l4.4 4.4l1.4-1.4l-4.4-4.4A8 8 0 0 0 10 2Z"/>
  </symbol>
  <symbol id="i-cart" viewBox="0 0 24 24">
    <path fill="currentColor" d="M7 18a2 2 0 1 0 0 4a2 2 0 0 0 0-4Zm10 0a2 2 0 1 0 0 4a2 2 0 0 0 0-4ZM6.2 6l.4 2h13.7l-1.2 6.2a2 2 0 0 1-2 1.6H9a2 2 0 0 1-2-1.6L5.2 4H2V2h4a1 1 0 0 1 1 .8Z"/>
  </symbol>
  <symbol id="i-phone" viewBox="0 0 24 24">
    <path fill="currentColor" d="M6.6 10.8c1.6 3.2 3.4 5 6.6 6.6l2.2-2.2c.3-.3.8-.4 1.2-.2c1 .4 2.1.6 3.2.6c.7 0 1.2.5 1.2 1.2V21c0 .7-.5 1.2-1.2 1.2C10 22.2 1.8 14 1.8 4.2C1.8 3.5 2.3 3 3 3h3.8c.7 0 1.2.5 1.2 1.2c0 1.1.2 2.2.6 3.2c.1.4 0 .9-.2 1.2l-1.8 2.2Z"/>
  </symbol>
  <symbol id="i-arrow-left" viewBox="0 0 24 24">
    <path fill="currentColor" d="M14 7l-5 5l5 5V7Z"/>
  </symbol>
  <symbol id="i-arrow-right" viewBox="0 0 24 24">
    <path fill="currentColor" d="M10 17l5-5l-5-5v10Z"/>
  </symbol>
  <symbol id="i-close" viewBox="0 0 24 24">
    <path fill="currentColor" d="M18.3 5.7L12 12l6.3 6.3l-1.4 1.4L10.6 13.4L4.3 19.7L2.9 18.3L9.2 12L2.9 5.7L4.3 4.3l6.3 6.3l6.3-6.3l1.4 1.4Z"/>
  </symbol>
</svg>
